<svg width="365" height="408" viewBox="0 0 365 408" fill="none" xmlns="http://www.w3.org/2000/svg">
<style>
  path[stroke="#FFA200"] {
    stroke-dasharray: 8 4;
    animation: flowLine 1.5s linear infinite;
  }
  @keyframes flowLine {
    0% { stroke-dashoffset: 0; }
    100% { stroke-dashoffset: -24; }
  }
  .gear {
    transform-origin: center;
    transition: transform 0.1s ease-out;
  }
  #gear1 { transform-box: fill-box; }
  #gear2 { transform-box: fill-box; }
  #gear3 { transform-box: fill-box; }
</style>
<circle cx="33.178" cy="142.674" r="1.44685" fill="#FF6F69" stroke="#FFA200" stroke-width="2.8937" stroke-miterlimit="10" stroke-linecap="round"/>
<path d="M39.103 142.674H148.712" stroke="#FFA200" stroke-width="2.8937" stroke-miterlimit="10" stroke-linecap="round"/>
<circle cx="151.675" cy="142.674" r="1.44685" fill="#FF6F69" stroke="#FFA200" stroke-width="2.8937" stroke-miterlimit="10" stroke-linecap="round"/>
<path d="M151.675 148.686V205.803" stroke="#FFA200" stroke-width="2.8937" stroke-miterlimit="10" stroke-linecap="round"/>
<circle cx="151.675" cy="208.809" r="1.44685" fill="#FF6F69" stroke="#FFA200" stroke-width="2.8937" stroke-miterlimit="10" stroke-linecap="round"/>
<circle cx="45.465" cy="39.181" r="1.44685" fill="#FF6F69" stroke="#FFA200" stroke-width="2.8937" stroke-miterlimit="10" stroke-linecap="round"/>
<path d="M51.39 39.181H160.999" stroke="#FFA200" stroke-width="2.8937" stroke-miterlimit="10" stroke-linecap="round"/>
<circle cx="163.962" cy="39.181" r="1.44685" fill="#FF6F69" stroke="#FFA200" stroke-width="2.8937" stroke-miterlimit="10" stroke-linecap="round"/>
<path d="M163.962 45.031V205.884" stroke="#FFA200" stroke-width="2.8937" stroke-miterlimit="10" stroke-linecap="round"/>
<circle cx="163.962" cy="208.809" r="1.44685" fill="#FF6F69" stroke="#FFA200" stroke-width="2.8937" stroke-miterlimit="10" stroke-linecap="round"/>
<circle cx="307.36" cy="151.326" r="1.44685" fill="#FF6F69"/>
<path d="M301.435 151.326H191.826" stroke="#FFA200" stroke-width="2.8937" stroke-miterlimit="10" stroke-linecap="round"/>
<circle cx="188.863" cy="151.326" r="1.44685" fill="#FFA200"/>
<path d="M188.863 157.074V205.935" stroke="#FFA200" stroke-width="2.8937" stroke-miterlimit="10" stroke-linecap="round"/>
<circle cx="188.863" cy="208.809" r="1.44685" fill="#FF6F69"/>
<circle cx="235.825" cy="66.413" r="1.44685" fill="#FF6F69" stroke="#FFA200" stroke-width="2.8937" stroke-miterlimit="10" stroke-linecap="round"/>
<path d="M229.9 66.413H179.539" stroke="#FFA200" stroke-width="2.8937" stroke-miterlimit="10" stroke-linecap="round"/>
<circle cx="176.576" cy="66.413" r="1.44685" fill="#FF6F69" stroke="#FFA200" stroke-width="2.8937" stroke-miterlimit="10" stroke-linecap="round"/>
<path d="M176.576 72.109V205.961" stroke="#FFA200" stroke-width="2.8937" stroke-miterlimit="10" stroke-linecap="round"/>
<circle cx="176.576" cy="208.809" r="1.44685" fill="#FF6F69" stroke="#FFA200" stroke-width="2.8937" stroke-miterlimit="10" stroke-linecap="round"/>
<path d="M112.657 243.904C109.454 243.904 106.857 241.307 106.857 238.104V230.625C106.857 227.422 109.454 224.825 112.657 224.825C115.86 224.825 118.457 227.422 118.457 230.625V238.104C118.457 241.307 115.86 243.904 112.657 243.904Z" fill="#808080"/>
<path d="M112.657 266.614C109.454 266.614 106.857 264.017 106.857 260.814V253.335C106.857 250.132 109.454 247.535 112.657 247.535C115.86 247.535 118.457 250.132 118.457 253.335V260.814C118.457 264.018 115.86 266.614 112.657 266.614Z" fill="#808080"/>
<path d="M228.549 243.904C225.346 243.904 222.749 241.307 222.749 238.104V230.625C222.749 227.422 225.346 224.825 228.549 224.825C231.752 224.825 234.349 227.422 234.349 230.625V238.104C234.349 241.307 231.752 243.904 228.549 243.904Z" fill="#808080"/>
<path d="M127.716 407.444C117.87 407.444 109.859 399.434 109.859 389.587V200.944C109.859 191.098 117.869 183.087 127.716 183.087H213.491C223.337 183.087 231.347 191.097 231.347 200.944V389.587C231.347 399.433 223.337 407.444 213.491 407.444H127.716Z" fill="#CCCCCC"/>
<path d="M231.347 201.896H109.859V208.809H231.347V201.896Z" fill="#E6E6E6"/>
<path d="M213.491 185.377H127.716C119.118 185.377 112.148 192.347 112.148 200.945V389.588C112.148 398.186 119.118 405.156 127.716 405.156H213.491C222.089 405.156 229.059 398.186 229.059 389.588V200.944C229.058 192.346 222.089 185.377 213.491 185.377Z" fill="white"/>
<path d="M225.091 201.109H116.117V381.345H225.091V201.109Z" fill="#666666"/>
<path d="M189.196 196.555H152.01C150.759 196.555 149.745 195.541 149.745 194.29C149.745 193.039 150.759 192.025 152.01 192.025H189.196C190.447 192.025 191.461 193.039 191.461 194.29C191.461 195.541 190.447 196.555 189.196 196.555Z" fill="#5D5D5D"/>
<path d="M170.603 401.644C175.239 401.644 178.997 397.886 178.997 393.25C178.997 388.614 175.239 384.856 170.603 384.856C165.967 384.856 162.209 388.614 162.209 393.25C162.209 397.886 165.967 401.644 170.603 401.644Z" fill="#5D5D5D"/>
<path id="gear1" class="gear" d="M159.051 291.269C159.551 292.976 160.241 294.619 161.114 296.163L158.628 299.302C157.815 300.327 157.904 301.788 158.819 302.713L163.101 306.997C164.028 307.92 165.49 308.002 166.515 307.189L169.634 304.723C171.237 305.646 172.94 306.366 174.719 306.873L175.187 310.886C175.339 312.184 176.436 313.16 177.735 313.16H183.798C185.096 313.16 186.193 312.184 186.342 310.886L186.79 307.018C188.7 306.521 190.527 305.78 192.244 304.815L195.259 307.2C196.284 308.014 197.745 307.921 198.669 307.009L202.954 302.723C203.877 301.8 203.96 300.337 203.148 299.312L200.801 296.337C201.777 294.651 202.537 292.853 203.043 290.976L206.661 290.56C207.959 290.408 208.936 289.31 208.936 288.011V281.951C208.936 280.651 207.959 279.554 206.661 279.403L203.098 278.987C202.611 277.127 201.878 275.35 200.944 273.686L203.138 270.915C203.948 269.888 203.859 268.428 202.946 267.503L198.671 263.228C197.747 262.305 196.285 262.223 195.261 263.035L192.568 265.167C190.826 264.142 188.956 263.361 186.997 262.833L186.593 259.349C186.438 258.051 185.342 257.077 184.043 257.077H177.981C176.68 257.077 175.586 258.051 175.435 259.349L175.029 262.833C173.017 263.371 171.097 264.183 169.311 265.25L166.518 263.036C165.493 262.224 164.032 262.315 163.104 263.229L158.822 267.514C157.901 268.438 157.818 269.9 158.631 270.926L160.966 273.879C160.03 275.565 159.32 277.362 158.854 279.23L155.118 279.655C153.819 279.809 152.843 280.904 152.843 282.204V288.266C152.843 289.566 153.819 290.662 155.118 290.813L159.051 291.269ZM181.013 274.873C186.535 274.873 191.034 279.37 191.034 284.894C191.034 290.417 186.535 294.914 181.013 294.914C175.488 294.914 170.992 290.417 170.992 284.894C170.992 279.37 175.489 274.873 181.013 274.873Z" fill="#FF6F69"/>
<path d="M180.887 264.135C192.457 264.135 201.869 273.548 201.869 285.117C201.869 296.687 192.457 306.099 180.887 306.099C169.318 306.099 159.905 296.687 159.905 285.117C159.905 273.548 169.317 264.135 180.887 264.135ZM180.887 261.79C168.004 261.79 157.56 272.234 157.56 285.117C157.56 298 168.004 308.444 180.887 308.444C193.77 308.444 204.214 298 204.214 285.117C204.214 272.234 193.77 261.79 180.887 261.79Z" fill="#FFEFAB"/>
<path d="M180.887 275.717C186.079 275.717 190.287 279.926 190.287 285.117C190.287 290.309 186.078 294.517 180.887 294.517C175.695 294.517 171.487 290.308 171.487 285.117C171.486 279.926 175.695 275.717 180.887 275.717ZM180.887 273.372C174.411 273.372 169.142 278.641 169.142 285.117C169.142 291.593 174.411 296.862 180.887 296.862C187.363 296.862 192.632 291.593 192.632 285.117C192.632 278.641 187.363 273.372 180.887 273.372Z" fill="#FFEFAB"/>
<mask id="mask0_2_6" style="mask-type:luminance" maskUnits="userSpaceOnUse" x="116" y="201" width="110" height="181">
<path d="M225.091 201.109H116.117V381.345H225.091V201.109Z" fill="white"/>
</mask>
<g mask="url(#mask0_2_6)">
<path id="gear2" class="gear" d="M185.218 348.066C185.924 350.472 186.895 352.788 188.125 354.964L184.62 359.388C183.474 360.833 183.6 362.893 184.89 364.197L190.926 370.235C192.233 371.536 194.293 371.652 195.738 370.506L200.134 367.031C202.394 368.332 204.795 369.346 207.302 370.061L207.962 375.717C208.176 377.547 209.722 378.923 211.554 378.923H220.1C221.929 378.923 223.476 377.547 223.687 375.717L224.319 370.264C227.011 369.564 229.586 368.518 232.006 367.158L236.256 370.52C237.7 371.667 239.761 371.536 241.063 370.25L247.102 364.208C248.403 362.906 248.52 360.845 247.376 359.4L244.068 355.207C245.444 352.831 246.515 350.297 247.228 347.651L252.327 347.064C254.157 346.85 255.534 345.303 255.534 343.471V334.929C255.534 333.096 254.157 331.55 252.327 331.337L247.304 330.75C246.618 328.128 245.585 325.624 244.267 323.278L247.359 319.372C248.501 317.925 248.375 315.866 247.088 314.563L241.062 308.537C239.759 307.235 237.699 307.12 236.255 308.265L232.458 311.27C230.003 309.826 227.366 308.725 224.604 307.98L224.034 303.07C223.816 301.24 222.27 299.867 220.44 299.867H211.895C210.061 299.867 208.519 301.24 208.306 303.07L207.734 307.98C204.898 308.739 202.191 309.883 199.674 311.387L195.737 308.266C194.293 307.121 192.232 307.25 190.925 308.538L184.889 314.578C183.591 315.88 183.474 317.941 184.619 319.387L187.911 323.55C186.592 325.926 185.59 328.459 184.934 331.093L179.668 331.692C177.836 331.908 176.461 333.453 176.461 335.285V343.83C176.461 345.663 177.837 347.208 179.668 347.421L185.218 348.066ZM216.177 324.954C223.961 324.954 230.302 331.293 230.302 339.079C230.302 346.864 223.96 353.203 216.177 353.203C208.39 353.203 202.052 346.864 202.052 339.079C202.051 331.293 208.389 324.954 216.177 324.954Z" fill="#FFCD52"/>
<path d="M215.998 309.819C232.306 309.819 245.574 323.087 245.574 339.395C245.574 355.703 232.306 368.971 215.998 368.971C199.69 368.971 186.422 355.703 186.422 339.395C186.422 323.086 199.69 309.819 215.998 309.819ZM215.998 306.513C197.838 306.513 183.116 321.235 183.116 339.395C183.116 357.555 197.838 372.277 215.998 372.277C234.158 372.277 248.88 357.555 248.88 339.395C248.88 321.235 234.158 306.513 215.998 306.513Z" fill="#FFEFAB"/>
<path d="M215.998 326.144C223.316 326.144 229.249 332.076 229.249 339.394C229.249 346.712 223.317 352.645 215.998 352.645C208.68 352.645 202.748 346.712 202.748 339.394C202.748 332.077 208.68 326.144 215.998 326.144ZM215.998 322.839C206.869 322.839 199.442 330.266 199.442 339.395C199.442 348.524 206.869 355.951 215.998 355.951C225.127 355.951 232.554 348.524 232.554 339.395C232.554 330.266 225.127 322.839 215.998 322.839Z" fill="#FFEFAB"/>
</g>
<mask id="mask1_2_6" style="mask-type:luminance" maskUnits="userSpaceOnUse" x="116" y="201" width="110" height="181">
<path d="M225.091 201.109H116.117V381.345H225.091V201.109Z" fill="white"/>
</mask>
<g mask="url(#mask1_2_6)">
<path id="gear3" class="gear" d="M94.429 366.397C95.135 368.803 96.106 371.119 97.336 373.295L93.831 377.719C92.685 379.164 92.811 381.223 94.101 382.528L100.137 388.566C101.444 389.868 103.504 389.983 104.949 388.837L109.346 385.361C111.606 386.663 114.007 387.676 116.514 388.391L117.174 394.047C117.388 395.877 118.934 397.253 120.766 397.253H129.312C131.141 397.253 132.688 395.877 132.899 394.047L133.531 388.594C136.223 387.894 138.799 386.848 141.218 385.488L145.468 388.85C146.912 389.997 148.972 389.866 150.275 388.58L156.314 382.538C157.615 381.236 157.732 379.175 156.588 377.73L153.28 373.537C154.656 371.161 155.727 368.626 156.44 365.981L161.539 365.394C163.369 365.18 164.746 363.633 164.746 361.801V353.259C164.746 351.426 163.369 349.88 161.539 349.667L156.516 349.08C155.83 346.458 154.797 343.954 153.479 341.608L156.571 337.702C157.713 336.255 157.587 334.196 156.3 332.893L150.274 326.867C148.971 325.565 146.911 325.45 145.467 326.595L141.67 329.6C139.215 328.156 136.578 327.055 133.816 326.31L133.246 321.399C133.028 319.569 131.482 318.196 129.652 318.196H121.107C119.273 318.196 117.731 319.569 117.518 321.399L116.946 326.31C114.11 327.069 111.404 328.213 108.886 329.717L104.949 326.596C103.505 325.451 101.444 325.58 100.137 326.868L94.101 332.908C92.803 334.21 92.686 336.271 93.831 337.717L97.123 341.88C95.804 344.256 94.802 346.789 94.146 349.423L88.88 350.022C87.048 350.239 85.673 351.783 85.673 353.615V362.16C85.673 363.993 87.049 365.538 88.88 365.751L94.429 366.397ZM125.387 343.285C133.171 343.285 139.513 349.624 139.513 357.41C139.513 365.195 133.171 371.534 125.387 371.534C117.6 371.534 111.262 365.195 111.262 357.41C111.262 349.624 117.6 343.285 125.387 343.285Z" fill="#94D9B0"/>
<path d="M125.209 328.15C141.517 328.15 154.785 341.418 154.785 357.726C154.785 374.034 141.517 387.302 125.209 387.302C108.901 387.302 95.633 374.034 95.633 357.726C95.633 341.418 108.9 328.15 125.209 328.15ZM125.209 324.844C107.049 324.844 92.327 339.566 92.327 357.726C92.327 375.886 107.049 390.608 125.209 390.608C143.369 390.608 158.091 375.887 158.091 357.726C158.091 339.565 143.369 324.844 125.209 324.844Z" fill="#FFEFAB"/>
<path d="M125.209 344.475C132.527 344.475 138.46 350.407 138.46 357.726C138.46 365.044 132.528 370.976 125.209 370.976C117.89 370.976 111.959 365.044 111.959 357.726C111.958 350.408 117.891 344.475 125.209 344.475ZM125.209 341.17C116.08 341.17 108.653 348.597 108.653 357.726C108.653 366.855 116.08 374.282 125.209 374.282C134.338 374.282 141.765 366.855 141.765 357.726C141.765 348.597 134.338 341.17 125.209 341.17Z" fill="#FFEFAB"/>
</g>
<path d="M92.427 142.674V218.455H36.277" stroke="#FFA200" stroke-width="2.8937" stroke-miterlimit="10" stroke-linecap="round"/>
<path d="M36.4407 215.691C37.871 215.691 39.0484 216.778 39.1907 218.172L39.2053 218.456C39.205 219.981 37.9663 221.219 36.4407 221.219C34.915 221.219 33.677 219.98 33.677 218.455C33.6772 216.929 34.9151 215.691 36.4407 215.691Z" fill="#FFA200" stroke="#FFA200"/>
<path d="M163.962 115.175H111.887" stroke="#FFA200" stroke-width="2.8937" stroke-miterlimit="10" stroke-linecap="round"/>
<path d="M112.051 112.411C113.576 112.411 114.815 113.649 114.815 115.175C114.815 116.701 113.577 117.939 112.051 117.939C110.525 117.939 109.287 116.7 109.287 115.175C109.287 113.649 110.525 112.411 112.051 112.411Z" fill="#FFA200" stroke="#FFA200"/>
<path d="M206.2 66.413V14.339" stroke="#FFA200" stroke-width="2.8937" stroke-miterlimit="10" stroke-linecap="round"/>
<path d="M206.2 11.738C207.726 11.738 208.964 12.9753 208.964 14.5017C208.964 16.0282 207.726 17.2663 206.2 17.2663C204.673 17.2661 203.436 16.0281 203.436 14.5017C203.436 12.9754 204.673 11.7382 206.2 11.738Z" fill="#FFA200" stroke="#FFA200"/>
<path d="M218.482 151.326V99.251" stroke="#FFA200" stroke-width="2.8937" stroke-miterlimit="10" stroke-linecap="round"/>
<path d="M218.482 96.65C220.008 96.65 221.246 97.8879 221.246 99.4137C221.246 100.94 220.008 102.178 218.482 102.178C216.955 102.178 215.718 100.94 215.718 99.4137C215.718 97.8881 216.956 96.6502 218.482 96.65Z" fill="#FFA200" stroke="#FFA200"/>
<path d="M265.906 151.326V203.4" stroke="#FFA200" stroke-width="2.8937" stroke-miterlimit="10" stroke-linecap="round"/>
<path d="M265.906 200.473C267.431 200.473 268.67 201.711 268.67 203.237C268.67 204.763 267.432 206.001 265.906 206.001C264.379 206.001 263.142 204.763 263.142 203.237C263.142 201.711 264.379 200.473 265.906 200.473Z" fill="#FFA200" stroke="#FFA200"/>
<path d="M53.618 175.851H12.738C5.703 175.851 0 170.148 0 163.113V122.234C0 115.199 5.703 109.496 12.738 109.496H53.617C60.652 109.496 66.355 115.199 66.355 122.234V163.113C66.356 170.148 60.653 175.851 53.618 175.851Z" fill="#94D9B0"/>
<path opacity="0.3" d="M53.618 168.974H12.738C5.703 168.974 0 163.271 0 156.236V163.113C0 170.148 5.703 175.851 12.738 175.851H53.617C60.652 175.851 66.355 170.148 66.355 163.113V156.236C66.356 163.271 60.653 168.974 53.618 168.974Z" fill="white"/>
<path opacity="0.3" d="M52.405 123.731H13.951C11.252 123.731 9.065 121.543 9.065 118.844C9.065 116.145 11.253 113.958 13.951 113.958H52.404C55.103 113.958 57.29 116.146 57.29 118.844C57.291 121.543 55.103 123.731 52.405 123.731Z" fill="white"/>
<path d="M10.349 186.349H9.42566L12.0961 179.076H13.0052L15.6757 186.349H14.7524L12.5791 180.227H12.5223L10.349 186.349ZM10.6899 183.508H14.4115V184.289H10.6899V183.508ZM16.8085 186.349V179.076H19.2659C19.8364 179.076 20.3028 179.179 20.665 179.385C21.0296 179.589 21.2995 179.865 21.4747 180.213C21.6499 180.561 21.7375 180.949 21.7375 181.377C21.7375 181.806 21.6499 182.195 21.4747 182.546C21.3018 182.896 21.0343 183.175 20.6721 183.384C20.3099 183.59 19.8459 183.693 19.2801 183.693H17.5187V182.911H19.2517C19.6423 182.911 19.956 182.844 20.1927 182.709C20.4295 182.574 20.6011 182.392 20.7076 182.162C20.8165 181.93 20.871 181.669 20.871 181.377C20.871 181.086 20.8165 180.826 20.7076 180.596C20.6011 180.367 20.4283 180.187 20.1892 180.056C19.95 179.924 19.6328 179.858 19.2375 179.858H17.6892V186.349H16.8085ZM23.1561 186.349V179.076H25.6135C26.1841 179.076 26.6505 179.179 27.0127 179.385C27.3773 179.589 27.6471 179.865 27.8223 180.213C27.9975 180.561 28.0851 180.949 28.0851 181.377C28.0851 181.806 27.9975 182.195 27.8223 182.546C27.6495 182.896 27.382 183.175 27.0198 183.384C26.6576 183.59 26.1935 183.693 25.6277 183.693H23.8664V182.911H25.5993C25.9899 182.911 26.3036 182.844 26.5404 182.709C26.7771 182.574 26.9487 182.392 27.0553 182.162C27.1642 181.93 27.2186 181.669 27.2186 181.377C27.2186 181.086 27.1642 180.826 27.0553 180.596C26.9487 180.367 26.7759 180.187 26.5368 180.056C26.2977 179.924 25.9805 179.858 25.5851 179.858H24.0368V186.349H23.1561ZM33.197 179.076V186.349H32.3163V179.076H33.197ZM40.815 181.349H39.9344C39.8823 181.096 39.7911 180.873 39.6609 180.681C39.5331 180.49 39.3768 180.329 39.1922 180.198C39.0099 180.066 38.8075 179.966 38.5849 179.9C38.3624 179.834 38.1304 179.801 37.8889 179.801C37.4486 179.801 37.0497 179.912 36.6922 180.135C36.3371 180.357 36.0542 180.685 35.8435 181.118C35.6351 181.551 35.531 182.083 35.531 182.713C35.531 183.342 35.6351 183.874 35.8435 184.307C36.0542 184.74 36.3371 185.068 36.6922 185.291C37.0497 185.513 37.4486 185.625 37.8889 185.625C38.1304 185.625 38.3624 185.591 38.5849 185.525C38.8075 185.459 39.0099 185.361 39.1922 185.23C39.3768 185.098 39.5331 184.936 39.6609 184.744C39.7911 184.55 39.8823 184.327 39.9344 184.076H40.815C40.7488 184.448 40.628 184.781 40.4528 185.074C40.2776 185.368 40.0598 185.617 39.7994 185.823C39.539 186.027 39.2466 186.182 38.9223 186.289C38.6003 186.395 38.2559 186.448 37.8889 186.448C37.2686 186.448 36.717 186.297 36.2341 185.994C35.7511 185.691 35.3712 185.26 35.0942 184.701C34.8172 184.143 34.6787 183.48 34.6787 182.713C34.6787 181.946 34.8172 181.283 35.0942 180.724C35.3712 180.165 35.7511 179.734 36.2341 179.431C36.717 179.128 37.2686 178.977 37.8889 178.977C38.2559 178.977 38.6003 179.03 38.9223 179.137C39.2466 179.243 39.539 179.399 39.7994 179.605C40.0598 179.809 40.2776 180.058 40.4528 180.351C40.628 180.642 40.7488 180.975 40.815 181.349ZM48.3745 182.713C48.3745 183.48 48.236 184.143 47.959 184.701C47.6821 185.26 47.3021 185.691 46.8191 185.994C46.3362 186.297 45.7846 186.448 45.1643 186.448C44.544 186.448 43.9924 186.297 43.5095 185.994C43.0265 185.691 42.6465 185.26 42.3696 184.701C42.0926 184.143 41.9541 183.48 41.9541 182.713C41.9541 181.946 42.0926 181.283 42.3696 180.724C42.6465 180.165 43.0265 179.734 43.5095 179.431C43.9924 179.128 44.544 178.977 45.1643 178.977C45.7846 178.977 46.3362 179.128 46.8191 179.431C47.3021 179.734 47.6821 180.165 47.959 180.724C48.236 181.283 48.3745 181.946 48.3745 182.713ZM47.5223 182.713C47.5223 182.083 47.4169 181.551 47.2062 181.118C46.9979 180.685 46.715 180.357 46.3575 180.135C46.0024 179.912 45.6046 179.801 45.1643 179.801C44.724 179.801 44.325 179.912 43.9676 180.135C43.6125 180.357 43.3295 180.685 43.1188 181.118C42.9105 181.551 42.8063 182.083 42.8063 182.713C42.8063 183.342 42.9105 183.874 43.1188 184.307C43.3295 184.74 43.6125 185.068 43.9676 185.291C44.325 185.513 44.724 185.625 45.1643 185.625C45.6046 185.625 46.0024 185.513 46.3575 185.291C46.715 185.068 46.9979 184.74 47.2062 184.307C47.4169 183.874 47.5223 183.342 47.5223 182.713ZM55.6224 179.076V186.349H54.7701L50.8071 180.639H50.736V186.349H49.8554V179.076H50.7076L54.6849 184.801H54.7559V179.076H55.6224Z" fill="white"/>
<path d="M36.563 156.69C31.429 161.824 23.105 161.824 17.972 156.69C12.838 151.556 12.838 143.232 17.972 138.099C23.106 132.965 31.43 132.965 36.563 138.099C41.697 143.232 41.697 151.556 36.563 156.69Z" fill="#FFA200"/>
<path d="M49.6821 139.721C47.3531 142.05 43.5761 142.05 41.2471 139.721C38.9181 137.392 38.9181 133.615 41.2471 131.286C43.5761 128.957 47.3531 128.957 49.6821 131.286C52.0121 133.616 52.0121 137.392 49.6821 139.721Z" fill="#FFA200"/>
<path d="M50.31 150.314C48.962 151.663 46.775 151.663 45.427 150.314C44.079 148.966 44.079 146.779 45.427 145.431C46.776 144.083 48.962 144.083 50.31 145.431C51.658 146.779 51.658 148.966 50.31 150.314Z" fill="#FFA200"/>
<path d="M140.272 0H27.268V10.23H140.272V0Z" fill="#666666"/>
<path d="M140.272 10.23H27.268V74.451H140.272V10.23Z" fill="#FFEFAB"/>
<path d="M61.874 16.515H37.54V18.931H61.874V16.515Z" fill="#FFCD52"/>
<path d="M102.54 29.398H78.206V31.814H102.54V29.398Z" fill="#FF6F69"/>
<path d="M126.143 21.884H37.54V24.032H126.143V21.884Z" fill="#4D4D4D"/>
<path d="M126.143 25.593H37.54V27.741H126.143V25.593Z" fill="#4D4D4D"/>
<path d="M90.943 34.399H37.54V36.547H90.943V34.399Z" fill="#4D4D4D"/>
<path d="M126.143 38.107H37.54V40.255H126.143V38.107Z" fill="#4D4D4D"/>
<path d="M72.281 29.533H37.54V31.681H72.281V29.533Z" fill="#94D9B0"/>
<path d="M90.943 48.884H37.54V51.032H90.943V48.884Z" fill="#4D4D4D"/>
<path d="M126.143 52.592H37.54V54.74H126.143V52.592Z" fill="#4D4D4D"/>
<path d="M72.281 44.017H37.54V46.165H72.281V44.017Z" fill="#94D9B0"/>
<path d="M119.911 44.017H85.17V46.165H119.911V44.017Z" fill="#FFCD52"/>
<path d="M61.874 58.239H37.54V60.655H61.874V58.239Z" fill="#FF6F69"/>
<path d="M76.9029 79.349H76.0223C75.9702 79.0957 75.879 78.8731 75.7488 78.6814C75.621 78.4896 75.4647 78.3286 75.2801 78.1984C75.0978 78.0659 74.8954 77.9664 74.6728 77.9001C74.4503 77.8338 74.2183 77.8007 73.9768 77.8007C73.5365 77.8007 73.1375 77.912 72.7801 78.1345C72.425 78.357 72.142 78.6849 71.9313 79.1182C71.723 79.5514 71.6188 80.0829 71.6188 80.7126C71.6188 81.3424 71.723 81.8739 71.9313 82.3071C72.142 82.7403 72.425 83.0682 72.7801 83.2908C73.1375 83.5133 73.5365 83.6246 73.9768 83.6246C74.2183 83.6246 74.4503 83.5914 74.6728 83.5251C74.8954 83.4588 75.0978 83.3606 75.2801 83.2304C75.4647 83.0978 75.621 82.9356 75.7488 82.7439C75.879 82.5498 75.9702 82.3272 76.0223 82.0763H76.9029C76.8366 82.448 76.7159 82.7806 76.5407 83.0741C76.3655 83.3677 76.1477 83.6175 75.8873 83.8234C75.6269 84.027 75.3345 84.1821 75.0102 84.2886C74.6882 84.3952 74.3438 84.4484 73.9768 84.4484C73.3565 84.4484 72.8049 84.2969 72.322 83.9939C71.839 83.6909 71.459 83.26 71.1821 82.7013C70.9051 82.1426 70.7666 81.4797 70.7666 80.7126C70.7666 79.9456 70.9051 79.2827 71.1821 78.724C71.459 78.1653 71.839 77.7344 72.322 77.4314C72.8049 77.1284 73.3565 76.9768 73.9768 76.9768C74.3438 76.9768 74.6882 77.0301 75.0102 77.1366C75.3345 77.2432 75.6269 77.3994 75.8873 77.6054C76.1477 77.809 76.3655 78.0576 76.5407 78.3511C76.7159 78.6423 76.8366 78.9749 76.9029 79.349ZM84.4624 80.7126C84.4624 81.4797 84.3239 82.1426 84.0469 82.7013C83.7699 83.26 83.39 83.6909 82.907 83.9939C82.4241 84.2969 81.8725 84.4484 81.2522 84.4484C80.6319 84.4484 80.0803 84.2969 79.5974 83.9939C79.1144 83.6909 78.7344 83.26 78.4574 82.7013C78.1805 82.1426 78.042 81.4797 78.042 80.7126C78.042 79.9456 78.1805 79.2827 78.4574 78.724C78.7344 78.1653 79.1144 77.7344 79.5974 77.4314C80.0803 77.1284 80.6319 76.9768 81.2522 76.9768C81.8725 76.9768 82.4241 77.1284 82.907 77.4314C83.39 77.7344 83.7699 78.1653 84.0469 78.724C84.3239 79.2827 84.4624 79.9456 84.4624 80.7126ZM83.6101 80.7126C83.6101 80.0829 83.5048 79.5514 83.2941 79.1182C83.0858 78.6849 82.8029 78.357 82.4454 78.1345C82.0903 77.912 81.6925 77.8007 81.2522 77.8007C80.8119 77.8007 80.4129 77.912 80.0555 78.1345C79.7003 78.357 79.4174 78.6849 79.2067 79.1182C78.9984 79.5514 78.8942 80.0829 78.8942 80.7126C78.8942 81.3424 78.9984 81.8739 79.2067 82.3071C79.4174 82.7403 79.7003 83.0682 80.0555 83.2908C80.4129 83.5133 80.8119 83.6246 81.2522 83.6246C81.6925 83.6246 82.0903 83.5133 82.4454 83.2908C82.8029 83.0682 83.0858 82.7403 83.2941 82.3071C83.5048 81.8739 83.6101 81.3424 83.6101 80.7126ZM88.1876 84.349H85.9432V77.0763H88.287C88.9925 77.0763 89.5962 77.2219 90.0981 77.5131C90.6 77.8019 90.9847 78.2174 91.2522 78.7595C91.5197 79.2993 91.6535 79.9456 91.6535 80.6984C91.6535 81.456 91.5185 82.1082 91.2486 82.6551C90.9788 83.1996 90.5858 83.6186 90.0697 83.9122C89.5536 84.2034 88.9262 84.349 88.1876 84.349ZM86.8239 83.5677H88.1307C88.7321 83.5677 89.2304 83.4517 89.6258 83.2197C90.0211 82.9877 90.3159 82.6575 90.51 82.229C90.7041 81.8005 90.8012 81.2903 90.8012 80.6984C90.8012 80.1113 90.7053 79.6059 90.5136 79.1821C90.3218 78.756 90.0353 78.4293 89.6542 78.202C89.273 77.9723 88.7984 77.8575 88.2302 77.8575H86.8239V83.5677ZM93.1307 84.349V77.0763H97.5199V77.8575H94.0114V80.3149H97.2927V81.0962H94.0114V83.5677H97.5768V84.349H93.1307Z" fill="white"/>
<path d="M133.45 7.4C134.583 7.4 135.501 6.48174 135.501 5.349C135.501 4.21627 134.583 3.298 133.45 3.298C132.317 3.298 131.399 4.21627 131.399 5.349C131.399 6.48174 132.317 7.4 133.45 7.4Z" fill="#FF6F69"/>
<path d="M126.143 7.4C127.276 7.4 128.194 6.48174 128.194 5.349C128.194 4.21627 127.276 3.298 126.143 3.298C125.01 3.298 124.092 4.21627 124.092 5.349C124.092 6.48174 125.01 7.4 126.143 7.4Z" fill="#FFCD52"/>
<path d="M116.784 5.349C116.784 6.482 117.702 7.4 118.835 7.4C119.968 7.4 120.886 6.482 120.886 5.349C120.886 4.216 119.968 3.298 118.835 3.298C117.702 3.298 116.784 4.217 116.784 5.349Z" fill="#94D9B0"/>
<path d="M285.547 99.591H244.668C237.633 99.591 231.93 93.888 231.93 86.853V45.973C231.93 38.938 237.633 33.235 244.668 33.235H285.547C292.582 33.235 298.285 38.938 298.285 45.973V86.852C298.285 93.888 292.582 99.591 285.547 99.591Z" fill="#FF6F69"/>
<path opacity="0.3" d="M285.547 93.833H244.668C237.633 93.833 231.93 88.13 231.93 81.095V86.852C231.93 93.887 237.633 99.59 244.668 99.59H285.547C292.582 99.59 298.285 93.887 298.285 86.852V81.095C298.285 88.13 292.582 93.833 285.547 93.833Z" fill="#FF6F69"/>
<path d="M256.823 102.076H257.704V106.892C257.704 107.389 257.587 107.833 257.353 108.223C257.121 108.612 256.793 108.918 256.369 109.143C255.945 109.366 255.448 109.477 254.877 109.477C254.307 109.477 253.81 109.366 253.386 109.143C252.962 108.918 252.633 108.612 252.399 108.223C252.167 107.833 252.051 107.389 252.051 106.892V102.076H252.931V106.821C252.931 107.176 253.009 107.492 253.166 107.769C253.322 108.043 253.545 108.26 253.833 108.419C254.125 108.575 254.473 108.653 254.877 108.653C255.282 108.653 255.63 108.575 255.921 108.419C256.213 108.26 256.435 108.043 256.589 107.769C256.745 107.492 256.823 107.176 256.823 106.821V102.076ZM260.343 102.076V109.349H259.463V102.076H260.343ZM264.567 101.735L262.223 110.443H261.456L263.8 101.735H264.567ZM270.446 102.076H271.327V106.892C271.327 107.389 271.21 107.833 270.976 108.223C270.744 108.612 270.416 108.918 269.992 109.143C269.568 109.366 269.071 109.477 268.5 109.477C267.93 109.477 267.433 109.366 267.009 109.143C266.585 108.918 266.256 108.612 266.022 108.223C265.79 107.833 265.674 107.389 265.674 106.892V102.076H266.554V106.821C266.554 107.176 266.633 107.492 266.789 107.769C266.945 108.043 267.168 108.26 267.456 108.419C267.748 108.575 268.096 108.653 268.5 108.653C268.905 108.653 269.253 108.575 269.544 108.419C269.836 108.26 270.058 108.043 270.212 107.769C270.368 107.492 270.446 107.176 270.446 106.821V102.076ZM273.512 102.076L275.387 105.102H275.444L277.319 102.076H278.356L276.069 105.713L278.356 109.349H277.319L275.444 106.38H275.387L273.512 109.349H272.475L274.819 105.713L272.475 102.076H273.512Z" fill="white"/>
<path d="M287.533 49.53H242.681V62.517H287.533V49.53Z" fill="#FFCD52"/>
<path d="M287.533 62.517H242.681V64.239H287.533V62.517Z" fill="#D4A637"/>
<path d="M254.056 54.9854C254.022 54.6975 253.884 54.474 253.642 54.3149C253.399 54.1558 253.102 54.0763 252.75 54.0763C252.492 54.0763 252.267 54.1179 252.073 54.2013C251.882 54.2846 251.732 54.3992 251.625 54.545C251.518 54.6909 251.465 54.8566 251.465 55.0422C251.465 55.1975 251.502 55.331 251.576 55.4427C251.652 55.5526 251.749 55.6445 251.866 55.7183C251.983 55.7903 252.107 55.8499 252.235 55.8973C252.364 55.9427 252.482 55.9797 252.59 56.0081L253.181 56.1672C253.333 56.207 253.501 56.2619 253.687 56.332C253.875 56.402 254.054 56.4977 254.224 56.6189C254.396 56.7382 254.538 56.8916 254.65 57.0791C254.762 57.2666 254.818 57.4967 254.818 57.7695C254.818 58.0838 254.735 58.3679 254.571 58.6217C254.408 58.8755 254.169 59.0772 253.855 59.2268C253.542 59.3765 253.162 59.4513 252.715 59.4513C252.299 59.4513 251.938 59.384 251.633 59.2496C251.33 59.1151 251.091 58.9276 250.917 58.6871C250.745 58.4465 250.647 58.1672 250.625 57.849H251.352C251.371 58.0687 251.445 58.2505 251.573 58.3945C251.704 58.5365 251.869 58.6426 252.068 58.7126C252.268 58.7808 252.484 58.8149 252.715 58.8149C252.984 58.8149 253.226 58.7713 253.44 58.6842C253.654 58.5952 253.823 58.4721 253.948 58.3149C254.073 58.1558 254.136 57.9702 254.136 57.7581C254.136 57.5649 254.082 57.4077 253.974 57.2865C253.866 57.1653 253.724 57.0668 253.548 56.991C253.372 56.9153 253.181 56.849 252.977 56.7922L252.261 56.5876C251.806 56.457 251.446 56.2704 251.181 56.028C250.916 55.7856 250.784 55.4683 250.784 55.0763C250.784 54.7505 250.872 54.4664 251.048 54.224C251.226 53.9797 251.464 53.7903 251.764 53.6558C252.065 53.5195 252.401 53.4513 252.772 53.4513C253.147 53.4513 253.481 53.5185 253.772 53.653C254.064 53.7856 254.295 53.9674 254.465 54.1984C254.638 54.4295 254.729 54.6918 254.738 54.9854H254.056ZM256.681 53.5308V59.349H255.976V53.5308H256.681ZM262.071 55.349C262.008 55.1577 261.926 54.9863 261.823 54.8348C261.723 54.6814 261.603 54.5507 261.463 54.4427C261.324 54.3348 261.167 54.2524 260.991 54.1956C260.815 54.1388 260.622 54.1104 260.411 54.1104C260.067 54.1104 259.753 54.1994 259.471 54.3774C259.189 54.5554 258.964 54.8177 258.798 55.1643C258.631 55.5109 258.548 55.9361 258.548 56.4399C258.548 56.9437 258.632 57.3689 258.801 57.7155C258.969 58.0621 259.197 58.3244 259.485 58.5024C259.773 58.6804 260.097 58.7695 260.457 58.7695C260.79 58.7695 261.084 58.6984 261.338 58.5564C261.593 58.4124 261.792 58.2098 261.934 57.9484C262.078 57.6852 262.15 57.3755 262.15 57.0195L262.366 57.0649H260.616V56.4399H262.832V57.0649C262.832 57.5441 262.73 57.9607 262.525 58.3149C262.322 58.6691 262.042 58.9437 261.684 59.1388C261.328 59.332 260.919 59.4285 260.457 59.4285C259.942 59.4285 259.489 59.3073 259.099 59.0649C258.711 58.8225 258.408 58.4778 258.19 58.0308C257.974 57.5838 257.866 57.0535 257.866 56.4399C257.866 55.9797 257.928 55.5659 258.051 55.1984C258.176 54.8291 258.352 54.5147 258.579 54.2552C258.806 53.9958 259.075 53.7969 259.386 53.6587C259.696 53.5204 260.038 53.4513 260.411 53.4513C260.718 53.4513 261.004 53.4977 261.269 53.5905C261.536 53.6814 261.774 53.8111 261.982 53.9797C262.193 54.1463 262.368 54.3462 262.508 54.5791C262.648 54.8102 262.745 55.0668 262.798 55.349H262.071ZM268.652 53.5308V59.349H267.97L264.8 54.7808H264.743V59.349H264.039V53.5308H264.72L267.902 58.1104H267.959V53.5308H268.652ZM273.017 53.5308V59.349H272.312V53.5308H273.017ZM279.043 53.5308V59.349H278.361L275.191 54.7808H275.134V59.349H274.429V53.5308H275.111L278.293 58.1104H278.35V53.5308H279.043Z" fill="white"/>
<path d="M281.217 70.157C280.664 70.157 280.151 70.328 279.727 70.619C279.652 69.231 278.506 68.127 277.099 68.127C276.578 68.127 276.093 68.28 275.684 68.541C275.377 67.426 274.358 66.606 273.146 66.606C272.596 66.606 272.086 66.775 271.664 67.063V58.659C271.664 57.204 270.484 56.024 269.029 56.024C267.574 56.024 266.394 57.204 266.394 58.659V70.157C266.394 70.157 266.253 75.623 265.377 75.129L264.116 71.869C263.583 70.49 262.033 69.805 260.654 70.338C259.275 70.871 258.59 72.421 259.123 73.8L262.331 82.095C262.331 82.095 262.745 90.097 272.545 90.426C281.317 90.721 283.584 88.527 283.793 87.18C283.831 87.002 283.852 86.817 283.852 86.628V72.793C283.852 71.337 282.673 70.157 281.217 70.157Z" fill="#FFEFAB"/>
<path d="M282.336 89.279H266.573V99.59H282.336V89.279Z" fill="#94D9B0"/>
<path opacity="0.3" d="M284.334 51.95H245.88C243.181 51.95 240.993 49.762 240.993 47.064C240.993 44.365 243.181 42.178 245.88 42.178H284.333C287.032 42.178 289.219 44.366 289.219 47.064C289.22 49.762 287.032 51.95 284.334 51.95Z" fill="#F2F2F2"/>
<path d="M352.117 185.932H311.238C304.203 185.932 298.5 180.229 298.5 173.194V132.315C298.5 125.28 304.203 119.577 311.238 119.577H352.117C359.152 119.577 364.855 125.28 364.855 132.315V173.194C364.854 180.229 359.152 185.932 352.117 185.932Z" fill="#94D9B0"/>
<path opacity="0.3" d="M352.117 179.055H311.238C304.203 179.055 298.5 173.352 298.5 166.317V173.194C298.5 180.229 304.203 185.932 311.238 185.932H352.117C359.152 185.932 364.855 180.229 364.855 173.194V166.317C364.854 173.352 359.152 179.055 352.117 179.055Z" fill="white"/>
<path d="M314.028 190.894C313.985 190.535 313.813 190.255 313.509 190.056C313.206 189.858 312.835 189.758 312.394 189.758C312.072 189.758 311.791 189.81 311.549 189.914C311.31 190.019 311.123 190.162 310.988 190.344C310.856 190.526 310.789 190.733 310.789 190.965C310.789 191.16 310.835 191.327 310.928 191.466C311.022 191.603 311.143 191.718 311.29 191.811C311.437 191.901 311.591 191.975 311.752 192.034C311.913 192.091 312.061 192.137 312.196 192.173L312.934 192.372C313.124 192.421 313.334 192.49 313.566 192.578C313.801 192.665 314.024 192.785 314.237 192.936C314.453 193.086 314.63 193.277 314.77 193.512C314.91 193.746 314.98 194.034 314.98 194.375C314.98 194.768 314.877 195.123 314.671 195.44C314.467 195.757 314.169 196.009 313.776 196.196C313.385 196.383 312.911 196.477 312.352 196.477C311.831 196.477 311.38 196.393 310.999 196.225C310.62 196.057 310.322 195.822 310.104 195.522C309.888 195.221 309.767 194.872 309.738 194.474H310.647C310.671 194.749 310.763 194.976 310.924 195.156C311.088 195.333 311.294 195.466 311.542 195.554C311.793 195.639 312.063 195.681 312.352 195.681C312.688 195.681 312.99 195.627 313.257 195.518C313.525 195.407 313.737 195.253 313.893 195.056C314.049 194.858 314.127 194.626 314.127 194.36C314.127 194.119 314.06 193.922 313.925 193.771C313.79 193.619 313.612 193.496 313.392 193.402C313.172 193.307 312.934 193.224 312.679 193.153L311.784 192.897C311.215 192.734 310.766 192.501 310.434 192.198C310.103 191.895 309.937 191.498 309.937 191.008C309.937 190.601 310.047 190.246 310.267 189.943C310.49 189.637 310.788 189.401 311.162 189.233C311.539 189.062 311.959 188.977 312.423 188.977C312.892 188.977 313.308 189.061 313.673 189.229C314.037 189.395 314.326 189.622 314.539 189.911C314.755 190.2 314.868 190.528 314.88 190.894H314.028ZM321.2 189.076H322.081V193.892C322.081 194.389 321.964 194.833 321.729 195.223C321.497 195.612 321.17 195.918 320.746 196.143C320.322 196.366 319.825 196.477 319.254 196.477C318.684 196.477 318.187 196.366 317.763 196.143C317.339 195.918 317.01 195.612 316.776 195.223C316.544 194.833 316.428 194.389 316.428 193.892V189.076H317.308V193.821C317.308 194.176 317.386 194.492 317.543 194.769C317.699 195.043 317.921 195.26 318.21 195.419C318.501 195.575 318.849 195.653 319.254 195.653C319.659 195.653 320.007 195.575 320.298 195.419C320.59 195.26 320.812 195.043 320.966 194.769C321.122 194.492 321.2 194.176 321.2 193.821V189.076ZM323.84 196.349V189.076H326.297C326.868 189.076 327.334 189.179 327.696 189.385C328.061 189.589 328.331 189.865 328.506 190.213C328.681 190.561 328.769 190.949 328.769 191.377C328.769 191.806 328.681 192.195 328.506 192.546C328.333 192.896 328.066 193.175 327.703 193.384C327.341 193.59 326.877 193.693 326.311 193.693H324.55V192.911H326.283C326.674 192.911 326.987 192.844 327.224 192.709C327.461 192.574 327.632 192.392 327.739 192.162C327.848 191.93 327.902 191.669 327.902 191.377C327.902 191.086 327.848 190.826 327.739 190.596C327.632 190.367 327.46 190.187 327.22 190.056C326.981 189.924 326.664 189.858 326.269 189.858H324.72V196.349H323.84ZM330.187 196.349V189.076H332.645C333.215 189.076 333.682 189.179 334.044 189.385C334.409 189.589 334.678 189.865 334.854 190.213C335.029 190.561 335.116 190.949 335.116 191.377C335.116 191.806 335.029 192.195 334.854 192.546C334.681 192.896 334.413 193.175 334.051 193.384C333.689 193.59 333.225 193.693 332.659 193.693H330.898V192.911H332.631C333.021 192.911 333.335 192.844 333.572 192.709C333.808 192.574 333.98 192.392 334.087 192.162C334.195 191.93 334.25 191.669 334.25 191.377C334.25 191.086 334.195 190.826 334.087 190.596C333.98 190.367 333.807 190.187 333.568 190.056C333.329 189.924 333.012 189.858 332.616 189.858H331.068V196.349H330.187ZM342.671 192.713C342.671 193.48 342.533 194.143 342.256 194.701C341.979 195.26 341.599 195.691 341.116 195.994C340.633 196.297 340.081 196.448 339.461 196.448C338.841 196.448 338.289 196.297 337.806 195.994C337.323 195.691 336.943 195.26 336.666 194.701C336.389 194.143 336.251 193.48 336.251 192.713C336.251 191.946 336.389 191.283 336.666 190.724C336.943 190.165 337.323 189.734 337.806 189.431C338.289 189.128 338.841 188.977 339.461 188.977C340.081 188.977 340.633 189.128 341.116 189.431C341.599 189.734 341.979 190.165 342.256 190.724C342.533 191.283 342.671 191.946 342.671 192.713ZM341.819 192.713C341.819 192.083 341.714 191.551 341.503 191.118C341.295 190.685 341.012 190.357 340.654 190.135C340.299 189.912 339.902 189.801 339.461 189.801C339.021 189.801 338.622 189.912 338.264 190.135C337.909 190.357 337.626 190.685 337.416 191.118C337.207 191.551 337.103 192.083 337.103 192.713C337.103 193.342 337.207 193.874 337.416 194.307C337.626 194.74 337.909 195.068 338.264 195.291C338.622 195.513 339.021 195.625 339.461 195.625C339.902 195.625 340.299 195.513 340.654 195.291C341.012 195.068 341.295 194.74 341.503 194.307C341.714 193.874 341.819 193.342 341.819 192.713ZM344.152 196.349V189.076H346.61C347.178 189.076 347.644 189.173 348.009 189.367C348.373 189.559 348.643 189.823 348.818 190.159C348.994 190.496 349.081 190.878 349.081 191.306C349.081 191.735 348.994 192.115 348.818 192.446C348.643 192.778 348.375 193.038 348.012 193.228C347.65 193.415 347.187 193.508 346.624 193.508H344.635V192.713H346.595C346.984 192.713 347.296 192.656 347.533 192.542C347.772 192.429 347.945 192.268 348.051 192.059C348.16 191.849 348.215 191.598 348.215 191.306C348.215 191.015 348.16 190.761 348.051 190.543C347.942 190.325 347.768 190.157 347.529 190.039C347.29 189.918 346.974 189.858 346.581 189.858H345.033V196.349H344.152ZM347.576 193.082L349.365 196.349H348.343L346.581 193.082H347.576ZM350.151 189.858V189.076H355.606V189.858H353.319V196.349H352.438V189.858H350.151Z" fill="white"/>
<path d="M326.752 146.918C327.375 147.534 328.311 147.72 329.128 147.39C332.493 146.029 336.503 146.691 339.231 149.39C340.735 150.877 341.597 152.749 341.848 154.688L340.848 153.964C340.506 153.716 340.041 153.721 339.705 153.975C339.368 154.228 339.24 154.671 339.39 155.062L342.011 161.893C342.125 162.192 342.386 162.415 342.701 162.483C343.018 162.549 343.348 162.455 343.576 162.23L348.85 157.063C349.15 156.769 349.218 156.315 349.021 155.947C348.822 155.578 348.402 155.381 347.989 155.464L346.346 155.791C346.317 152.353 344.986 148.928 342.341 146.311C338.332 142.345 332.435 141.357 327.486 143.345C326.798 143.621 326.298 144.218 326.15 144.936C326.003 145.656 326.229 146.4 326.752 146.918Z" fill="#FF6F69"/>
<path d="M339.152 166.861C339.299 166.143 339.073 165.398 338.549 164.88C337.927 164.264 336.99 164.077 336.174 164.408C332.808 165.769 328.799 165.108 326.071 162.409C324.567 160.922 323.704 159.048 323.454 157.111L324.454 157.834C324.796 158.082 325.259 158.078 325.597 157.823C325.934 157.57 326.061 157.127 325.911 156.736L323.291 149.905C323.176 149.606 322.916 149.385 322.601 149.316C322.284 149.249 321.955 149.343 321.726 149.569L316.453 154.736C316.153 155.03 316.084 155.483 316.282 155.852C316.48 156.22 316.9 156.417 317.314 156.335L318.956 156.007C318.984 159.444 320.316 162.87 322.961 165.486C326.97 169.452 332.867 170.44 337.816 168.451C338.504 168.175 339.005 167.579 339.152 166.861Z" fill="#FFCD52"/>
<path opacity="0.3" d="M350.904 133.812H312.45C309.751 133.812 307.564 131.624 307.564 128.926C307.564 126.227 309.752 124.04 312.45 124.04H350.903C353.602 124.04 355.789 126.228 355.789 128.926C355.79 131.624 353.602 133.812 350.904 133.812Z" fill="white"/>
</svg>
